# xmcd
#
# Track frame offsets:
#	150
#	16071
#	41990
#	59553
#	77131
#	114538
#	129154
#	153174
#	173137
#	183388
#	204019
#
# Disc length: 2922 seconds
#
# Revision: 1
# Processed by: cddbd v1.5.2PL0 Copyright (c) Steve Scherf et al.
# Submitted via: EasyCDDAExtractor 11.1.0.1
#
DISCID=850b680b
DTITLE=Joe Bonamassa - Sloe Gin
DYEAR=2007
DGENRE=Blues
TTITLE0=Ball Peen Hammer 
TTITLE1=One of these Days
TTITLE2=Seagull
TTITLE3=Dirt in my Pocket 
TTITLE4=Sloe Gin
TTITLE5=Another kind of Love
TTITLE6=Around the Bend
TTITLE7=Black Night
TTITLE8=Jelly Roll
TTITLE9=Richmond
TTITLE10=India
EXTD=
EXTT0=
EXTT1=
EXTT2=
EXTT3=
EXTT4=
EXTT5=
EXTT6=
EXTT7=
EXTT8=
EXTT9=
EXTT10=
PLAYORDER=
